<?xml version="1.0" encoding="UTF-8"?>
<svg version="1.1" xmlns="http://www.w3.org/2000/svg" width="40" height="40">
<path d="M0 0 C13.2 0 26.4 0 40 0 C40 13.2 40 26.4 40 40 C26.8 40 13.6 40 0 40 C0 26.8 0 13.6 0 0 Z " fill="#FCDB58" transform="translate(0,0)"/>
<path d="M0 0 C1.9375 1.4375 1.9375 1.4375 3 3 C3 3.66 3 4.32 3 5 C2.29875 4.855625 1.5975 4.71125 0.875 4.5625 C-2.07556141 3.98521625 -5.03270151 3.48304859 -8 3 C-7.4818964 4.9648239 -7.4818964 4.9648239 -6 7 C-3.69747517 8.06902939 -1.3627974 9.07175817 1 10 C3 12 3 12 3.375 14.4375 C3 17 3 17 1.5 18.8125 C-2.03546151 20.49184422 -5.15499081 20.72487878 -9 20 C-11.5 18.1875 -11.5 18.1875 -13 16 C-13 15.01 -13 14.02 -13 13 C-11.68 13 -10.36 13 -9 13 C-8.67 13.66 -8.34 14.32 -8 15 C-5.67843403 15.40729228 -3.3431213 15.74438677 -1 16 C-1.69030588 12.85078661 -1.69030588 12.85078661 -4.28515625 11.61328125 C-5.20167969 11.18402344 -6.11820313 10.75476562 -7.0625 10.3125 C-7.98160156 9.87550781 -8.90070312 9.43851563 -9.84765625 8.98828125 C-10.55792969 8.66214844 -11.26820312 8.33601563 -12 8 C-12.3125 5.1875 -12.3125 5.1875 -12 2 C-8.14738468 -1.61912349 -4.93293103 -1.27890805 0 0 Z " fill="#141106" transform="translate(25,10)"/>
</svg>
